<mxfile host="app.diagrams.net" modified="2024-04-13T11:29:03.363Z" agent="Mozilla/5.0 (Windows NT 10.0; Win64; x64) AppleWebKit/537.36 (KHTML, like Gecko) Chrome/123.0.0.0 Safari/537.36 Edg/123.0.0.0" etag="yXIWbEzvVgTdHt_Wz21H" version="24.2.3" type="github">
  <diagram name="Page-1" id="BMXBwUTSwNP17463DZY6">
    <mxGraphModel dx="1097" dy="613" grid="1" gridSize="10" guides="1" tooltips="1" connect="1" arrows="1" fold="1" page="1" pageScale="1" pageWidth="850" pageHeight="1100" math="0" shadow="0">
      <root>
        <mxCell id="0" />
        <mxCell id="1" parent="0" />
        <mxCell id="-0r63JOXk3kp81CuptCJ-10" value="Event Management" style="swimlane;startSize=20;html=1;" vertex="1" parent="1">
          <mxGeometry x="400" y="100" width="190" height="300" as="geometry" />
        </mxCell>
        <mxCell id="-0r63JOXk3kp81CuptCJ-17" style="edgeStyle=orthogonalEdgeStyle;rounded=0;orthogonalLoop=1;jettySize=auto;html=1;" edge="1" parent="-0r63JOXk3kp81CuptCJ-10" source="-0r63JOXk3kp81CuptCJ-3" target="-0r63JOXk3kp81CuptCJ-4">
          <mxGeometry relative="1" as="geometry" />
        </mxCell>
        <mxCell id="-0r63JOXk3kp81CuptCJ-3" value="Displays Event&lt;div&gt;Details&amp;nbsp;&lt;/div&gt;" style="rounded=1;whiteSpace=wrap;html=1;arcSize=40;fontColor=#000000;fillColor=#FFFFFF;strokeColor=#0D0D0D;" vertex="1" parent="-0r63JOXk3kp81CuptCJ-10">
          <mxGeometry x="34.38" y="125" width="135.62" height="40" as="geometry" />
        </mxCell>
        <mxCell id="-0r63JOXk3kp81CuptCJ-4" value="" style="ellipse;html=1;shape=endState;fillColor=#000000;strokeColor=#0D0D0D;" vertex="1" parent="-0r63JOXk3kp81CuptCJ-10">
          <mxGeometry x="87.18999999999954" y="240" width="30" height="30" as="geometry" />
        </mxCell>
        <mxCell id="-0r63JOXk3kp81CuptCJ-9" value="User" style="swimlane;startSize=20;html=1;" vertex="1" parent="1">
          <mxGeometry x="210" y="100" width="190" height="300" as="geometry">
            <mxRectangle y="20" width="40" height="460" as="alternateBounds" />
          </mxGeometry>
        </mxCell>
        <mxCell id="-0r63JOXk3kp81CuptCJ-1" value="" style="ellipse;html=1;shape=startState;fillColor=#000000;strokeColor=#0D0D0D;" vertex="1" parent="-0r63JOXk3kp81CuptCJ-9">
          <mxGeometry x="87.49999999999977" y="40" width="30" height="30" as="geometry" />
        </mxCell>
        <mxCell id="-0r63JOXk3kp81CuptCJ-2" value="Select Event" style="rounded=1;whiteSpace=wrap;html=1;arcSize=40;fontColor=#000000;fillColor=#FFFFFF;strokeColor=#0D0D0D;" vertex="1" parent="-0r63JOXk3kp81CuptCJ-9">
          <mxGeometry x="51.25" y="130" width="102.5" height="30" as="geometry" />
        </mxCell>
        <mxCell id="-0r63JOXk3kp81CuptCJ-5" style="edgeStyle=orthogonalEdgeStyle;rounded=0;orthogonalLoop=1;jettySize=auto;html=1;" edge="1" parent="-0r63JOXk3kp81CuptCJ-9" source="-0r63JOXk3kp81CuptCJ-1" target="-0r63JOXk3kp81CuptCJ-2">
          <mxGeometry relative="1" as="geometry" />
        </mxCell>
        <mxCell id="-0r63JOXk3kp81CuptCJ-18" style="edgeStyle=orthogonalEdgeStyle;rounded=0;orthogonalLoop=1;jettySize=auto;html=1;entryX=0;entryY=0.5;entryDx=0;entryDy=0;" edge="1" parent="1" source="-0r63JOXk3kp81CuptCJ-2" target="-0r63JOXk3kp81CuptCJ-3">
          <mxGeometry relative="1" as="geometry" />
        </mxCell>
      </root>
    </mxGraphModel>
  </diagram>
</mxfile>
